{"scene":0,"asset":{"generator":"ImageToStl.com","version":"2.0"},"scenes":[{"name":"Scene","nodes":[0]}],"nodes":[{"name":"Node0","children":[1,2,3,4,5,6,7,8,9,10,11]},{"name":"Node1","mesh":0},{"name":"Node2","mesh":1},{"name":"Node3","mesh":2},{"name":"Node4","mesh":3},{"name":"Node5","mesh":4},{"name":"Node6","mesh":5},{"name":"Node7","mesh":6},{"name":"Node8","mesh":7},{"name":"Node9","mesh":8},{"name":"Node10","mesh":9},{"name":"Node11","mesh":10}],"materials":[{"name":"Material.002","pbrMetallicRoughness":{"baseColorFactor":[0.272162,0.8,0.104806,1.0],"metallicFactor":0.5,"roughnessFactor":0.75},"emissiveFactor":[0.0,0.0,0.0],"doubleSided":true},{"name":"Material.001","pbrMetallicRoughness":{"baseColorFactor":[0.0,0.255219,0.171185,1.0],"metallicFactor":0.5,"roughnessFactor":0.75},"emissiveFactor":[0.0,0.0,0.0],"doubleSided":true},{"name":"Material.003","pbrMetallicRoughness":{"baseColorFactor":[0.8,0.8,0.8,1.0],"metallicFactor":0.5,"roughnessFactor":0.19},"emissiveFactor":[0.0,0.0,0.0],"doubleSided":true},{"name":"Material.004","pbrMetallicRoughness":{"baseColorFactor":[0.034505,0.009732,0.002434,1.0],"metallicFactor":0.024138,"roughnessFactor":1.0},"emissiveFactor":[0.0,0.0,0.0],"doubleSided":true}],"meshes":[{"name":"Mesh0","primitives":[{"indices":3,"material":0,"attributes":{"POSITION":0,"NORMAL":1,"TEXCOORD_0":2}}]},{"name":"Mesh0","primitives":[{"indices":7,"material":0,"attributes":{"POSITION":4,"NORMAL":5,"TEXCOORD_0":6}}]},{"name":"Mesh0","primitives":[{"indices":11,"material":0,"attributes":{"POSITION":8,"NORMAL":9,"TEXCOORD_0":10}}]},{"name":"Mesh0","primitives":[{"indices":15,"material":0,"attributes":{"POSITION":12,"NORMAL":13,"TEXCOORD_0":14}}]},{"name":"Mesh0","primitives":[{"indices":19,"material":0,"attributes":{"POSITION":16,"NORMAL":17,"TEXCOORD_0":18}}]},{"name":"Mesh0","primitives":[{"indices":23,"material":0,"attributes":{"POSITION":20,"NORMAL":21,"TEXCOORD_0":22}}]},{"name":"Mesh0","primitives":[{"indices":27,"material":0,"attributes":{"POSITION":24,"NORMAL":25,"TEXCOORD_0":26}}]},{"name":"Mesh0","primitives":[{"indices":31,"material":0,"attributes":{"POSITION":28,"NORMAL":29,"TEXCOORD_0":30}}]},{"name":"Mesh0","primitives":[{"indices":35,"material":1,"attributes":{"POSITION":32,"NORMAL":33,"TEXCOORD_0":34}}]},{"name":"Mesh0","primitives":[{"indices":39,"material":2,"attributes":{"POSITION":36,"NORMAL":37,"TEXCOORD_0":38}}]},{"name":"Mesh0","primitives":[{"indices":43,"material":3,"attributes":{"POSITION":40,"NORMAL":41,"TEXCOORD_0":42}}]}],"accessors":[{"bufferView":0,"componentType":5126,"count":913,"type":"VEC3","min":[-1.4538586,-0.105087586,0.72589445],"max":[1.1925673,0.10508763,6.875258]},{"bufferView":1,"componentType":5126,"count":913,"type":"VEC3"},{"bufferView":2,"componentType":5126,"count":913,"type":"VEC2"},{"bufferView":3,"componentType":5123,"count":13824,"type":"SCALAR"},{"bufferView":4,"componentType":5126,"count":1017,"type":"VEC3","min":[0.65211284,-2.4001138,2.0453131],"max":[3.2841098,-0.029552788,2.9457884]},{"bufferView":5,"componentType":5126,"count":1017,"type":"VEC3"},{"bufferView":6,"componentType":5126,"count":1017,"type":"VEC2"},{"bufferView":7,"componentType":5123,"count":11232,"type":"SCALAR"},{"bufferView":8,"componentType":5126,"count":1017,"type":"VEC3","min":[-0.19882202,-0.06088321,2.6755688],"max":[1.5557067,2.529056,3.7020144]},{"bufferView":9,"componentType":5126,"count":1017,"type":"VEC3"},{"bufferView":10,"componentType":5126,"count":1017,"type":"VEC2"},{"bufferView":11,"componentType":5123,"count":11232,"type":"SCALAR"},{"bufferView":12,"componentType":5126,"count":1017,"type":"VEC3","min":[-0.19093025,-2.62288,3.039939],"max":[1.4468296,0.07484028,4.2235274]},{"bufferView":13,"componentType":5126,"count":1017,"type":"VEC3"},{"bufferView":14,"componentType":5126,"count":1017,"type":"VEC2"},{"bufferView":15,"componentType":5123,"count":11232,"type":"SCALAR"},{"bufferView":16,"componentType":5126,"count":1017,"type":"VEC3","min":[-1.8467667,-0.1267445,3.1200879],"max":[0.3273949,1.914982,4.6514506]},{"bufferView":17,"componentType":5126,"count":1017,"type":"VEC3"},{"bufferView":18,"componentType":5126,"count":1017,"type":"VEC2"},{"bufferView":19,"componentType":5123,"count":11232,"type":"SCALAR"},{"bufferView":20,"componentType":5126,"count":1017,"type":"VEC3","min":[-2.9336572,-1.2541398,3.1815171],"max":[-0.782665,0.3962873,5.141217]},{"bufferView":21,"componentType":5126,"count":1017,"type":"VEC3"},{"bufferView":22,"componentType":5126,"count":1017,"type":"VEC2"},{"bufferView":23,"componentType":5123,"count":11232,"type":"SCALAR"},{"bufferView":24,"componentType":5126,"count":1017,"type":"VEC3","min":[-2.312934,-0.122718275,5.6035285],"max":[-0.6383886,2.6608415,6.6572943]},{"bufferView":25,"componentType":5126,"count":1017,"type":"VEC3"},{"bufferView":26,"componentType":5126,"count":1017,"type":"VEC2"},{"bufferView":27,"componentType":5123,"count":11232,"type":"SCALAR"},{"bufferView":28,"componentType":5126,"count":1017,"type":"VEC3","min":[-1.0500844,-0.861752,5.709859],"max":[1.6181061,0.8062289,7.1034994]},{"bufferView":29,"componentType":5126,"count":1017,"type":"VEC3"},{"bufferView":30,"componentType":5126,"count":1017,"type":"VEC2"},{"bufferView":31,"componentType":5123,"count":11232,"type":"SCALAR"},{"bufferView":32,"componentType":5126,"count":4,"type":"VEC3","min":[-90.81501,-90.81501,0.0],"max":[90.81501,90.81501,0.0]},{"bufferView":33,"componentType":5126,"count":4,"type":"VEC3"},{"bufferView":34,"componentType":5126,"count":4,"type":"VEC2"},{"bufferView":35,"componentType":5123,"count":18,"type":"SCALAR"},{"bufferView":36,"componentType":5126,"count":7938,"type":"VEC3","min":[-1.4134163,-1.4134164,0.0008087145],"max":[1.4134163,1.4134164,1.4466481]},{"bufferView":37,"componentType":5126,"count":7938,"type":"VEC3"},{"bufferView":38,"componentType":5126,"count":7938,"type":"VEC2"},{"bufferView":39,"componentType":5123,"count":142848,"type":"SCALAR"},{"bufferView":40,"componentType":5126,"count":32,"type":"VEC3","min":[-1.066493,-1.066493,1.0541873],"max":[1.066493,1.066493,1.0541873]},{"bufferView":41,"componentType":5126,"count":32,"type":"VEC3"},{"bufferView":42,"componentType":5126,"count":32,"type":"VEC2"},{"bufferView":43,"componentType":5123,"count":270,"type":"SCALAR"}],"bufferViews":[{"target":34962,"buffer":0,"byteLength":10956,"byteOffset":0},{"target":34962,"buffer":0,"byteLength":10956,"byteOffset":10956},{"target":34962,"buffer":0,"byteLength":7304,"byteOffset":21912},{"target":34963,"buffer":0,"byteLength":27648,"byteOffset":29216},{"target":34962,"buffer":0,"byteLength":12204,"byteOffset":56864},{"target":34962,"buffer":0,"byteLength":12204,"byteOffset":69068},{"target":34962,"buffer":0,"byteLength":8136,"byteOffset":81272},{"target":34963,"buffer":0,"byteLength":22464,"byteOffset":89408},{"target":34962,"buffer":0,"byteLength":12204,"byteOffset":111872},{"target":34962,"buffer":0,"byteLength":12204,"byteOffset":124076},{"target":34962,"buffer":0,"byteLength":8136,"byteOffset":136280},{"target":34963,"buffer":0,"byteLength":22464,"byteOffset":144416},{"target":34962,"buffer":0,"byteLength":12204,"byteOffset":166880},{"target":34962,"buffer":0,"byteLength":12204,"byteOffset":179084},{"target":34962,"buffer":0,"byteLength":8136,"byteOffset":191288},{"target":34963,"buffer":0,"byteLength":22464,"byteOffset":199424},{"target":34962,"buffer":0,"byteLength":12204,"byteOffset":221888},{"target":34962,"buffer":0,"byteLength":12204,"byteOffset":234092},{"target":34962,"buffer":0,"byteLength":8136,"byteOffset":246296},{"target":34963,"buffer":0,"byteLength":22464,"byteOffset":254432},{"target":34962,"buffer":0,"byteLength":12204,"byteOffset":276896},{"target":34962,"buffer":0,"byteLength":12204,"byteOffset":289100},{"target":34962,"buffer":0,"byteLength":8136,"byteOffset":301304},{"target":34963,"buffer":0,"byteLength":22464,"byteOffset":309440},{"target":34962,"buffer":0,"byteLength":12204,"byteOffset":331904},{"target":34962,"buffer":0,"byteLength":12204,"byteOffset":344108},{"target":34962,"buffer":0,"byteLength":8136,"byteOffset":356312},{"target":34963,"buffer":0,"byteLength":22464,"byteOffset":364448},{"target":34962,"buffer":0,"byteLength":12204,"byteOffset":386912},{"target":34962,"buffer":0,"byteLength":12204,"byteOffset":399116},{"target":34962,"buffer":0,"byteLength":8136,"byteOffset":411320},{"target":34963,"buffer":0,"byteLength":22464,"byteOffset":419456},{"target":34962,"buffer":0,"byteLength":48,"byteOffset":441920},{"target":34962,"buffer":0,"byteLength":48,"byteOffset":441968},{"target":34962,"buffer":0,"byteLength":32,"byteOffset":442016},{"target":34963,"buffer":0,"byteLength":36,"byteOffset":442048},{"target":34962,"buffer":0,"byteLength":95256,"byteOffset":442084},{"target":34962,"buffer":0,"byteLength":95256,"byteOffset":537340},{"target":34962,"buffer":0,"byteLength":63504,"byteOffset":632596},{"target":34963,"buffer":0,"byteLength":285696,"byteOffset":696100},{"target":34962,"buffer":0,"byteLength":384,"byteOffset":981796},{"target":34962,"buffer":0,"byteLength":384,"byteOffset":982180},{"target":34962,"buffer":0,"byteLength":256,"byteOffset":982564},{"target":34963,"buffer":0,"byteLength":540,"byteOffset":982820}],"buffers":[{"byteLength":983360,"uri":"data:application/octet-stream;base64,"}]}